<svg width="32" height="32" viewBox="0 0 32 32" fill="none" xmlns="http://www.w3.org/2000/svg">
<g clip-path="url(#clip0_2_433)">
<g clip-path="url(#clip1_2_433)">
<g clip-path="url(#clip2_2_433)">
<rect width="32" height="32" rx="4" fill="white"/>
</g>
</g>
<path d="M22.5 9C22.2188 9 22 9.25 22 9.5V13.5625C21 11.125 18.625 9.5 16 9.5C12.8125 9.5 10.0938 11.7812 9.5625 14.9375C9.53125 15.2188 9.71875 15.4688 10 15.5C10 15.5 10.0312 15.5 10.0625 15.5C10.3125 15.5 10.5312 15.3438 10.5625 15.0938C11 12.4375 13.2812 10.5 16 10.5C18.25 10.5 20.2812 11.9062 21.0938 14H17.5C17.2188 14 17 14.25 17 14.5C17 14.7812 17.2188 15 17.5 15H22.5C22.75 15 23 14.7812 23 14.5V9.5C23 9.25 22.75 9 22.5 9ZM21.9688 16.5312C21.6875 16.4688 21.4375 16.6562 21.375 16.9375C20.9688 19.5938 18.6875 21.5 15.9688 21.5C13.6875 21.5 11.6562 20.125 10.8438 18H14.5C14.75 18 15 17.7812 15 17.5C15 17.25 14.75 17 14.5 17H9.5C9.21875 17 9 17.25 9 17.5V22.5C9 22.7812 9.21875 23 9.5 23C9.75 23 10 22.7812 10 22.5V18.4688C10.9688 20.9062 13.3438 22.5 16 22.5C19.1562 22.5 21.875 20.25 22.4062 17.0938C22.4375 16.8125 22.25 16.5625 21.9688 16.5312Z" fill="#211F33"/>
</g>
<defs>
<clipPath id="clip0_2_433">
<rect width="32" height="32" fill="white"/>
</clipPath>
<clipPath id="clip1_2_433">
<rect width="32" height="32" fill="white"/>
</clipPath>
<clipPath id="clip2_2_433">
<rect width="32" height="32" fill="white"/>
</clipPath>
</defs>
</svg>
