<svg width="120" height="26" viewBox="0 0 120 26" fill="none" xmlns="http://www.w3.org/2000/svg">
<path fill-rule="evenodd" clip-rule="evenodd" d="M113.123 20.5C115.693 20.5 117.647 19.6828 118.986 18.0486L115.602 16.4109C115.471 16.4854 115.336 16.5512 115.197 16.6079C114.569 16.852 113.899 16.9701 113.226 16.9556C112.149 16.9556 111.25 16.6914 110.53 16.1443C109.808 15.6013 109.318 14.7991 109.159 13.9016H119.923C119.944 13.575 119.962 13.3156 119.975 13.1234C119.991 12.8845 120 12.7492 120 12.717C120 11.1315 119.679 9.74296 119.036 8.53872C118.427 7.38 117.504 6.42269 116.375 5.78022C113.978 4.48173 111.097 4.49873 108.715 5.82542C107.57 6.48632 106.628 7.45645 105.994 8.62797C105.324 9.8617 104.981 11.2514 105.001 12.6603C105.001 14.1716 105.338 15.5192 106.012 16.703C106.677 17.8938 107.669 18.8633 108.867 19.4939C110.099 20.1627 111.524 20.5 113.123 20.5ZM109.105 11.3261C109.246 10.3464 109.634 9.57368 110.269 9.00807C110.904 8.44091 111.688 8.15656 112.623 8.15502C113.479 8.13243 114.312 8.44159 114.951 9.01966C115.586 9.59531 115.974 10.3641 116.115 11.3261H109.105Z" fill="#3BA1C4"/>
<path d="M12.7177 6.90257C13.7846 8.02185 14.3181 9.68167 14.3181 11.8821V20.4977H10.2576V12.5532C10.2576 11.3598 10.0144 10.4692 9.52816 9.88133C9.0419 9.29344 8.33836 8.99988 7.41754 9.00064C6.39407 9.00064 5.57851 9.34078 4.97087 10.021C4.36324 10.7013 4.05942 11.7129 4.05942 13.0559V20.5H0V6.70673L3.8796 4.81824V7.21064C4.42647 6.56944 5.11261 6.06711 5.88346 5.74359C6.7165 5.39079 7.61124 5.21429 8.51331 5.2248C10.2486 5.22403 11.65 5.78329 12.7177 6.90257Z" fill="white"/>
<path d="M17.7253 6.70715V20.5H21.8162V4.81824L17.7253 6.70715Z" fill="white"/>
<path d="M21.8162 0.0455017V3.60279L17.7253 5.50001V1.94387L21.8162 0.0455017Z" fill="white"/>
<path d="M42.2742 1.94797V5.50001L46.3651 3.59754V0.0455017L42.2742 1.94797Z" fill="white"/>
<path d="M37.2599 6.90257C38.3269 8.02185 38.8603 9.68167 38.8603 11.8821V20.4977H34.7998V12.5532C34.7998 11.3598 34.5567 10.4692 34.0704 9.88133C33.5841 9.29344 32.8813 8.99988 31.962 9.00064C30.9378 9.00064 30.1222 9.34078 29.5154 10.021C28.9085 10.7013 28.6046 11.7129 28.6039 13.0559V20.5H24.5422V6.70673L28.4218 4.81824V7.21064C28.9687 6.56944 29.6548 6.06711 30.4257 5.74359C31.2604 5.38964 32.1571 5.21273 33.0612 5.22365C34.7927 5.22365 36.1923 5.78329 37.2599 6.90257Z" fill="white"/>
<path d="M46.3636 4.81824V20.3166C46.3636 22.0598 45.8817 23.4351 44.918 24.4424C43.9543 25.4497 42.6071 25.9537 40.8765 25.9545C39.3986 25.9545 38.2731 25.6771 37.5 25.1223L38.6329 21.9844C39.1198 22.3353 39.7144 22.5104 40.4168 22.5096C40.9582 22.5096 41.3793 22.3312 41.6874 21.9696C41.9954 21.6081 42.1471 21.0669 42.1471 20.345V6.70209L46.3636 4.81824Z" fill="white"/>
<path fill-rule="evenodd" clip-rule="evenodd" d="M64.0872 20.2791V6.68041L59.9121 4.81824V7.01128C58.8769 5.81576 57.4409 5.218 55.604 5.218C54.3134 5.20103 53.0421 5.52526 51.9245 6.15642C50.8201 6.78881 49.9241 7.71716 49.3424 8.83167C48.7186 9.9888 48.4063 11.3311 48.4055 12.8587C48.4048 14.3862 48.7171 15.7285 49.3424 16.8856C49.9239 18.0006 50.8199 18.9293 51.9245 19.562C53.0422 20.1928 54.3135 20.5166 55.604 20.4993C57.5657 20.5008 59.0641 19.8571 60.0992 18.5682V20.2791H64.0872ZM59.9888 12.8586C59.9888 14.1099 59.6422 15.1074 58.9491 15.8512C58.2856 16.5824 57.3263 16.991 56.3266 16.968C55.2537 16.9673 54.3707 16.595 53.6776 15.8512C52.9844 15.1074 52.6378 14.1099 52.6378 12.8586C52.6347 11.6081 52.9813 10.6106 53.6776 9.86605C54.3738 9.12148 55.2568 8.7492 56.3266 8.7492C57.3263 8.72627 58.2856 9.1348 58.9491 9.86605C59.6422 10.6099 59.9888 11.6074 59.9888 12.8586Z" fill="white"/>
<path fill-rule="evenodd" clip-rule="evenodd" d="M67.453 15.6786C68.3142 17.1616 69.5803 18.3856 71.112 19.2163C72.6698 20.072 74.419 20.4999 76.3596 20.4999C78.3002 20.4999 80.0444 20.0709 81.5923 19.213C83.1205 18.3778 84.3854 17.1549 85.2513 15.6753C86.1413 14.1748 86.5863 12.4864 86.5863 10.6102C86.5863 8.73406 86.1413 7.04535 85.2513 5.5441C84.3846 4.0663 83.1198 2.84497 81.5923 2.01088C80.0444 1.15441 78.3002 0.726551 76.3596 0.727296C74.419 0.728042 72.6698 1.1559 71.112 2.01088C69.581 2.84052 68.3151 4.06292 67.453 5.5441C66.5722 7.04833 66.1318 8.73816 66.1318 10.6136C66.1318 12.489 66.5722 14.1774 67.453 15.6786ZM81.4493 13.7812C80.9709 14.6792 80.245 15.4309 79.3523 15.9525V15.9514C77.5018 16.989 75.2208 16.989 73.3703 15.9514C72.4777 15.4301 71.7521 14.6783 71.2745 13.78C70.7544 12.8015 70.4926 11.7132 70.5125 10.6125C70.4926 9.51172 70.7544 8.42338 71.2745 7.44485C71.7523 6.54651 72.4779 5.79444 73.3703 5.27237C75.2208 4.23481 77.5018 4.23481 79.3523 5.27237C80.2448 5.79469 80.9707 6.54668 81.4493 7.44485C81.9686 8.424 82.23 9.51261 82.2101 10.6136C82.2298 11.7141 81.9685 12.8024 81.4493 13.7812Z" fill="#3BA1C4"/>
<path d="M101.354 6.90257C102.419 8.02185 102.951 9.68167 102.951 11.8821V20.4977H98.8921V12.5532C98.8921 11.3598 98.6493 10.4692 98.1637 9.88133C97.6781 9.29344 96.9751 8.99988 96.0548 9.00064C95.0304 9.00064 94.2146 9.34078 93.6076 10.021C93.0006 10.7013 92.6963 11.7129 92.6948 13.0559V20.5H88.6333V6.70673L92.5138 4.81824V7.21064C93.0615 6.56915 93.7486 6.0668 94.5204 5.74359C95.3536 5.3907 96.2486 5.21419 97.1509 5.2248C98.8835 5.22403 100.285 5.78329 101.354 6.90257Z" fill="#3BA1C4"/>
</svg>
