<svg width="11" height="13" viewBox="0 0 11 13" fill="none" xmlns="http://www.w3.org/2000/svg">
<path d="M9.19531 6.60547C9.19531 5.59375 9.66016 4.85547 10.5625 4.28125C10.043 3.54297 9.27734 3.16016 8.26562 3.07812C7.28125 2.99609 6.21484 3.625 5.83203 3.625C5.42188 3.625 4.49219 3.10547 3.75391 3.10547C2.22266 3.13281 0.609375 4.30859 0.609375 6.74219C0.609375 7.45312 0.71875 8.19141 0.992188 8.95703C1.34766 9.96875 2.60547 12.4297 3.91797 12.375C4.60156 12.375 5.09375 11.8828 5.99609 11.8828C6.87109 11.8828 7.30859 12.375 8.07422 12.375C9.41406 12.375 10.5625 10.1328 10.8906 9.12109C9.11328 8.27344 9.19531 6.66016 9.19531 6.60547ZM7.66406 2.12109C8.40234 1.24609 8.32031 0.425781 8.32031 0.125C7.66406 0.179688 6.89844 0.589844 6.46094 1.08203C5.96875 1.62891 5.69531 2.3125 5.75 3.05078C6.46094 3.10547 7.11719 2.75 7.66406 2.12109Z" fill="#595766"/>
</svg>
